<svg width="66" height="66" viewBox="0 0 66 66" fill="none" xmlns="http://www.w3.org/2000/svg">
<g clip-path="url(#clip0_1_22)">
<path d="M38.837 33.0007L64.7906 7.04697C66.4031 5.43588 66.4031 2.8218 64.7906 1.2107C63.1782 -0.401776 60.5668 -0.401776 58.9544 1.2107L33.0007 27.1644L7.04563 1.2107C5.43316 -0.401776 2.82183 -0.401776 1.20936 1.2107C-0.403119 2.8218 -0.403119 5.43588 1.20936 7.04697L27.1644 33.0007L1.20936 58.9543C-0.403119 60.5654 -0.403119 63.1795 1.20936 64.7906C2.01559 65.5955 3.07223 65.9986 4.12749 65.9986C5.18276 65.9986 6.23939 65.5955 7.04563 64.7892L33.0007 38.8356L58.9544 64.7892C59.7606 65.5955 60.8172 65.9986 61.8725 65.9986C62.9278 65.9986 63.9844 65.5955 64.7906 64.7892C66.4031 63.1781 66.4031 60.5641 64.7906 58.953L38.837 33.0007Z" fill="black"/>
</g>
<defs>
<clipPath id="clip0_1_22">
<rect width="66" height="66" fill="white"/>
</clipPath>
</defs>
</svg>
