<svg width="30" height="30" viewBox="0 0 30 30" fill="none" xmlns="http://www.w3.org/2000/svg">
<g clip-path="url(#clip0_1_138)">
<path d="M14.0658 8.89465L11.1597 11.8008C10.089 12.8715 9.01217 13.9422 7.9476 15.0251C7.69675 15.2821 7.50709 15.6247 7.43367 15.9612C7.04822 17.7294 6.675 19.4976 6.30179 21.2657L6.09377 22.2446C5.99588 22.7219 6.12436 23.1991 6.44863 23.5234C6.69948 23.7742 7.04822 23.9149 7.41531 23.9149C7.51932 23.9149 7.62333 23.9027 7.72734 23.8843L8.80415 23.658C10.5173 23.297 12.2365 22.9299 13.9496 22.575C14.3473 22.4894 14.6838 22.3119 14.9713 22.0244C19.7803 17.2093 24.5892 12.4004 29.3982 7.59758C29.753 7.24273 29.9488 6.82057 29.9977 6.30052C30.0039 6.21486 29.9977 6.12921 29.9794 6.04967C29.9488 5.9273 29.9243 5.79882 29.8937 5.67646C29.8264 5.36443 29.753 5.00957 29.6062 4.66695C28.7068 2.61122 27.2139 1.14284 25.1705 0.316878C24.7605 0.151686 24.3261 0.0966215 23.9468 0.0476756L23.8428 0.0354391C23.2922 -0.0318616 22.7905 0.151686 22.3561 0.592199C19.6029 3.35764 16.8313 6.12921 14.0658 8.89465ZM23.6409 1.50993C23.6531 1.50993 23.6592 1.50993 23.6715 1.50993L23.7755 1.52217C24.0936 1.55888 24.3873 1.59559 24.6198 1.69348C26.284 2.36649 27.5076 3.56566 28.2479 5.2543C28.3336 5.45008 28.3887 5.70093 28.4437 5.96401C28.4621 6.0619 28.4865 6.1598 28.5049 6.25769C28.4804 6.36782 28.4376 6.44124 28.3519 6.52077C23.5369 11.3236 18.7279 16.1386 13.919 20.9476C13.8395 21.0271 13.766 21.0638 13.6559 21.0883C11.9367 21.4493 10.2236 21.8103 8.50436 22.1712L7.59886 22.3609L7.77017 21.5594C8.14338 19.7974 8.5166 18.0292 8.89593 16.2671C8.90816 16.2121 8.95711 16.1264 9.01217 16.0652C10.0767 14.9884 11.1413 13.9177 12.212 12.8532L15.1182 9.94699C17.8897 7.17542 20.6613 4.40386 23.4268 1.62618C23.543 1.52829 23.5981 1.50993 23.6409 1.50993Z" fill="black"/>
<path d="M2.38 6.6921H13.0624C13.4785 6.6921 13.815 6.3556 13.815 5.93956C13.815 5.52352 13.4785 5.18701 13.0624 5.18701H2.38C1.06457 5.18701 0 6.2577 0 7.56701V27.5981C0 28.9136 1.07069 29.9781 2.38 29.9781H22.405C23.7204 29.9781 24.785 28.9074 24.785 27.5981V17.3501C24.785 16.934 24.4485 16.5975 24.0325 16.5975C23.6164 16.5975 23.2799 16.934 23.2799 17.3501V27.5981C23.2799 28.0815 22.8822 28.4792 22.3989 28.4792H2.38C1.89665 28.4792 1.49897 28.0815 1.49897 27.5981V7.57313C1.49897 7.08978 1.89665 6.6921 2.38 6.6921Z" fill="black"/>
</g>
<defs>
<clipPath id="clip0_1_138">
<rect width="30" height="30" fill="white"/>
</clipPath>
</defs>
</svg>
