<svg width="34" height="34" viewBox="0 0 34 34" fill="none" xmlns="http://www.w3.org/2000/svg">
<g clip-path="url(#clip0_1_120)">
<path d="M17 6.86642C10.5039 6.86642 4.61297 10.4205 0.266032 16.1932C-0.0886775 16.6662 -0.0886775 17.3269 0.266032 17.7998C4.61297 23.5795 10.5039 27.1336 17 27.1336C23.4961 27.1336 29.387 23.5795 33.734 17.8068C34.0887 17.3338 34.0887 16.6731 33.734 16.2002C29.387 10.4205 23.4961 6.86642 17 6.86642ZM17.466 24.1359C13.1538 24.4072 9.59282 20.8531 9.86407 16.534C10.0866 12.973 12.973 10.0866 16.534 9.86407C20.8462 9.59282 24.4072 13.1469 24.1359 17.466C23.9064 21.02 21.02 23.9064 17.466 24.1359ZM17.2504 20.8392C14.9274 20.9853 13.0078 19.0726 13.1608 16.7496C13.279 14.83 14.837 13.279 16.7566 13.1538C19.0796 13.0078 20.9992 14.9204 20.8462 17.2434C20.721 19.17 19.163 20.721 17.2504 20.8392Z" fill="black"/>
</g>
<defs>
<clipPath id="clip0_1_120">
<rect width="34" height="34" fill="white"/>
</clipPath>
</defs>
</svg>
