<svg width="31" height="31" viewBox="0 0 31 31" fill="none" xmlns="http://www.w3.org/2000/svg">
<path d="M25.3377 0H5.66239C2.54011 0 0 2.54019 0 5.66241V25.3376C0 28.4599 2.54019 31 5.66239 31H25.3376C28.4599 31 31 28.4599 31 25.3376V5.66241C31.0001 2.54019 28.4599 0 25.3377 0ZM29.0381 25.3376C29.0381 27.378 27.3781 29.038 25.3377 29.038H5.66239C3.62197 29.038 1.96202 27.378 1.96202 25.3376V5.66241C1.96202 3.62198 3.62197 1.96203 5.66239 1.96203H25.3376C27.378 1.96203 29.038 3.62198 29.038 5.66241L29.0381 25.3376Z" fill="black"/>
<path d="M15.5001 6.27124C12.8494 6.27124 10.6929 8.42782 10.6929 11.0785C10.6929 11.6203 11.132 12.0595 11.6739 12.0595C12.2157 12.0595 12.6549 11.6203 12.6549 11.0785C12.6549 9.50968 13.9312 8.23327 15.5001 8.23327C17.0689 8.23327 18.3452 9.50968 18.3452 11.0785C18.3452 11.9808 17.6927 12.584 16.6179 13.4702C15.634 14.2812 14.519 15.2005 14.519 16.662V19.8094C14.519 20.3511 14.9583 20.7904 15.5001 20.7904C16.0418 20.7904 16.4811 20.3511 16.4811 19.8094V16.662C16.4811 16.1258 17.123 15.5967 17.8659 14.984C18.9536 14.0872 20.3072 12.9712 20.3072 11.0785C20.3072 8.42774 18.1507 6.27124 15.5001 6.27124Z" fill="black"/>
<path d="M15.5001 22.212C14.8061 22.212 14.2417 22.7765 14.2417 23.4704C14.2417 24.1642 14.8061 24.7287 15.5001 24.7287C16.1939 24.7287 16.7584 24.1642 16.7584 23.4704C16.7584 22.7765 16.1939 22.212 15.5001 22.212Z" fill="black"/>
</svg>
